<?xml version="1.0" encoding="UTF-8" standalone="no"?>
<!-- Uploaded to: SVG Repo, www.svgrepo.com, Generator: SVG Repo Mixer Tools -->

<svg
   fill="#000000"
   version="1.1"
   width="800px"
   height="800px"
   viewBox="0 0 512 512"
   enable-background="new 0 0 512 512"
   xml:space="preserve"
   id="svg2852"
   sodipodi:docname="css.svg"
   inkscape:version="1.2.1 (9c6d41e410, 2022-07-14)"
   xmlns:inkscape="http://www.inkscape.org/namespaces/inkscape"
   xmlns:sodipodi="http://sodipodi.sourceforge.net/DTD/sodipodi-0.dtd"
   xmlns="http://www.w3.org/2000/svg"
   xmlns:svg="http://www.w3.org/2000/svg"><defs
   id="defs2856" /><sodipodi:namedview
   id="namedview2854"
   pagecolor="#ffffff"
   bordercolor="#000000"
   borderopacity="0.25"
   inkscape:showpageshadow="2"
   inkscape:pageopacity="0.0"
   inkscape:pagecheckerboard="0"
   inkscape:deskcolor="#d1d1d1"
   showgrid="false"
   inkscape:zoom="1.04625"
   inkscape:cx="399.5221"
   inkscape:cy="400.4779"
   inkscape:window-width="1920"
   inkscape:window-height="1017"
   inkscape:window-x="-8"
   inkscape:window-y="-8"
   inkscape:window-maximized="1"
   inkscape:current-layer="svg2852" />



<path
   style="fill:#413f3f;fill-opacity:1;stroke-width:0.611709;paint-order:stroke fill markers"
   d="m 250.85376,508.88277 c -0.8411,-0.28743 -19.14648,-5.24729 -40.67862,-11.02192 -33.03063,-8.85838 -68.8588,-18.53497 -128.152924,-34.61202 -5.8877,-1.59639 -10.79236,-2.96366 -10.89925,-3.03837 -0.10689,-0.0747 -0.50213,-3.74157 -0.8783,-8.14858 -0.37618,-4.407 -0.89943,-8.01274 -1.1628,-8.01274 -0.26337,0 -0.31919,-0.41606 -0.12405,-0.92457 0.36614,-0.95414 -2.69141,-36.58973 -3.2797,-38.22477 -0.18158,-0.50466 -0.27418,-2.08077 -0.2058,-3.50246 0.0684,-1.4217 -0.0473,-2.86261 -0.25707,-3.20204 -0.20978,-0.33943 -0.51469,-2.89236 -0.67757,-5.67317 -0.16288,-2.78082 -0.82332,-10.1485 -1.46763,-16.37263 -0.64432,-6.22413 -1.279011,-12.69295 -1.410431,-14.37515 -0.13142,-1.68219 -0.43024,-5.53596 -0.66405,-8.56392 -0.23381,-3.02795 -0.95577,-10.59785 -1.60435,-16.82198 -1.30594,-12.53248 -1.72683,-17.14052 -1.81585,-19.88052 -0.0328,-1.00932 -0.72933,-8.44159 -1.54786,-16.51613 -1.58418,-15.62747 -2.03342,-20.48669 -2.12077,-22.93907 -0.03,-0.84111 -0.72573,-8.27336 -1.54617,-16.51613 -0.82044,-8.24277 -1.59641,-16.3632 -1.72437,-18.0454 -0.58096,-7.63754 -1.19817,-14.51724 -2.55186,-28.44445 -0.80118,-8.24277 -1.62699,-17.18901 -1.83513,-19.88052 -0.20814,-2.69152 -1.03394,-11.63775 -1.83512,-19.88053 -0.80118,-8.24277 -1.6266,-17.18901 -1.83427,-19.88053 -0.20766,-2.69151 -0.902949,-10.12377 -1.545069,-16.51612 -0.64213,-6.39236 -1.27426,-12.99881 -1.40473,-14.68101 -0.65249,-8.41257 -1.19916,-14.46437 -2.26553,-25.080042 -0.64212,-6.39236 -1.27425,-12.99881 -1.40472,-14.68101 -0.66242,-8.54065 -1.22905,-14.75473 -2.59369,-28.444438 -0.82167,-8.24277 -1.51332,-15.39976 -1.537,-15.90442 -0.0237,-0.50466 -0.7653,-9.23913 -1.64805,-19.40993 -0.88275,-10.1708 -1.44716,-18.65019 -1.25425,-18.8431 0.45863,-0.45864 451.347534,-0.45864 451.806174,0 0.19291,0.19291 -0.37151,8.6723 -1.25425,18.8431 -0.88275,10.1708 -1.62226,18.90527 -1.64334,19.40993 -0.0211,0.50466 -0.85434,9.03799 -1.85167,18.962958 -0.99733,9.92497 -1.82067,18.87121 -1.82965,19.88053 -0.009,1.00931 -0.83641,10.09319 -1.83872,20.18638 -1.00231,10.093192 -1.82731,19.039422 -1.83333,19.880522 -0.006,0.8411 -0.83181,9.78734 -1.83512,19.88053 -1.0033,10.09319 -1.82912,19.03943 -1.83513,19.88052 -0.006,0.8411 -0.83182,9.78734 -1.83512,19.88053 -1.00331,10.09319 -1.83094,19.03943 -1.83918,19.88053 -0.008,0.84109 -0.55358,6.75938 -1.21187,13.15173 -1.09851,10.66714 -1.67194,16.94685 -2.29018,25.08004 -0.12787,1.6822 -1.03885,11.17898 -2.02439,21.10394 -0.98554,9.92498 -1.79904,18.87121 -1.80777,19.88053 -0.009,1.00932 -0.69799,8.44158 -1.53171,16.51613 -0.8337,8.07455 -1.54266,15.50681 -1.57545,16.51613 -0.0871,2.68023 -0.46945,6.8644 -2.12424,23.24492 -0.81569,8.07456 -1.61246,16.88365 -1.77059,19.57576 -0.15814,2.69212 -0.41844,5.30717 -0.57848,5.81123 -0.54648,1.72123 -2.9327,31.17212 -2.57285,31.75436 0.19735,0.31931 0.0601,0.76517 -0.30493,0.99078 -0.36506,0.22562 -0.61039,1.68981 -0.54518,3.25374 0.0652,1.56394 -0.028,3.25642 -0.20717,3.76108 -0.39435,1.11081 -3.05979,30.63645 -2.84395,31.50299 0.0838,0.33644 -0.058,1.09231 -0.3151,1.67971 -0.25711,0.5874 -0.36257,2.16784 -0.23438,3.5121 0.1282,1.34426 0.0747,2.51527 -0.11899,2.60225 -0.19364,0.087 -0.81818,5.22582 -1.38787,11.41964 -0.56968,6.19382 -1.10647,11.31243 -1.19286,11.37469 -0.21983,0.15844 -11.92073,3.33238 -66.40073,18.0116 -85.32383,22.98988 -116.54165,31.22878 -118.14195,31.17967 -0.86557,-0.0266 -2.26194,-0.28345 -3.10304,-0.57088 z m 29.53195,-101.8809 c 27.80682,-7.99427 73.14353,-21.29185 83.45594,-24.4782 7.76778,-2.40012 7.15766,-1.60405 7.82248,-10.20664 0.1759,-2.27607 0.55749,-6.54274 0.84799,-9.48148 0.29049,-2.93873 0.54,-5.75606 0.55448,-6.26072 0.0145,-0.50466 0.29511,-3.67025 0.62365,-7.03465 0.32853,-3.3644 0.60179,-6.52999 0.60724,-7.03465 0.006,-0.50466 0.28876,-3.67024 0.62958,-7.03464 0.34082,-3.3644 0.62439,-6.52999 0.63015,-7.03465 0.006,-0.50466 0.32488,-3.76258 0.70917,-7.23983 0.38429,-3.47724 0.55629,-6.46468 0.38221,-6.63876 -0.17407,-0.17408 -0.0743,-0.95356 0.22176,-1.73221 0.29603,-0.77863 0.69267,-4.35723 0.88142,-7.95244 0.18874,-3.5952 0.46239,-6.72964 0.60811,-6.96541 0.14571,-0.23577 0.41305,-3.2509 0.59409,-6.70029 0.18104,-3.44939 0.45234,-6.47093 0.60289,-6.71454 0.15055,-0.24359 0.42425,-3.40663 0.6082,-7.02895 0.18395,-3.62233 0.46691,-6.80035 0.62879,-7.06228 0.16188,-0.26194 0.44226,-3.4358 0.62306,-7.05303 0.1808,-3.61723 0.45643,-6.78341 0.61251,-7.03595 0.15609,-0.25255 0.42322,-3.26734 0.59364,-6.69956 0.17043,-3.43221 0.44095,-6.45249 0.60116,-6.71172 0.16022,-0.25923 0.44234,-3.57356 0.62696,-7.36517 0.18461,-3.7916 0.46426,-7.10193 0.62145,-7.35627 0.15719,-0.25434 0.47895,-3.46951 0.71503,-7.14483 0.23607,-3.67531 0.54821,-8.40282 0.69364,-10.50557 l 0.26441,-3.82318 -14.27441,-0.0868 c -7.85093,-0.0477 -36.33706,-0.25417 -63.30252,-0.45877 l -49.02809,-0.37202 47.80467,-20.45121 c 26.29258,-11.24816 55.72685,-23.90593 65.40951,-28.12837 17.44869,-7.60909 17.61,-7.69626 18.18877,-9.82837 0.46272,-1.70458 2.87336,-24.22275 3.01341,-28.1488 0.0321,-0.9006 2.11415,-19.504832 2.68693,-24.009562 l 0.29168,-2.2939 H 253.54824 c -78.86309,0 -143.39163,0.20645 -143.39675,0.45877 -0.0225,1.10724 5.06238,42.148042 5.32417,42.972532 0.16025,0.50466 0.38002,2.29994 0.48838,3.98952 0.10837,1.68957 0.39221,4.37344 0.63075,5.96416 l 0.43371,2.89219 h 21.85096 c 12.01803,0 43.77796,0.18292 70.5776,0.4065 l 48.72663,0.40649 -42.04967,17.53597 c -53.76619,22.42212 -75.38328,31.50535 -79.97561,33.60478 -2.01864,0.92285 -5.8724,2.6589 -8.56392,3.85791 l -4.89367,2.18 -0.16969,2.96594 c -0.0933,1.63128 0.26025,7.37025 0.78572,12.75329 0.52548,5.38303 0.94305,10.4755 0.92794,11.31661 -0.0151,0.84109 0.26014,4.28195 0.61167,7.64635 0.35154,3.3644 0.75679,7.90633 0.90054,10.09319 0.14377,2.18686 0.43029,5.24659 0.63674,6.79939 l 0.37535,2.82329 3.67671,0.3843 c 2.0222,0.21136 30.28534,0.38207 62.80698,0.37935 32.52163,-0.003 74.88939,0.18128 94.15056,0.40889 31.41048,0.37118 35.0201,0.51396 35.01831,1.38517 -10e-4,0.53424 -0.4268,7.16489 -0.94601,14.73479 -0.5192,7.56988 -0.88454,14.58924 -0.81184,15.59856 0.0727,1.00932 -0.0452,2.66093 -0.26193,3.67025 -0.21676,1.00932 -0.55137,5.68889 -0.74358,10.39904 -0.19222,4.71016 -0.59807,11.59188 -0.9019,15.29271 -0.30382,3.70084 -0.56642,7.57919 -0.58356,8.61856 -0.0299,1.81773 -0.20017,1.93712 -4.46603,3.13239 -2.43918,0.68345 -16.79089,4.74722 -31.89268,9.0306 l -27.4578,7.78797 -22.09059,-5.55055 c -29.95249,-7.52593 -37.87467,-9.73783 -38.67223,-10.7974 -0.77665,-1.0318 -0.96092,-2.60152 -2.65537,-22.62061 -0.68345,-8.07455 -1.40291,-16.12616 -1.5988,-17.89247 l -0.35616,-3.21147 h -29.60856 -29.60856 l 0.3124,1.6822 c 0.39442,2.12384 3.36672,33.57252 3.36768,35.63202 6.1e-4,1.42529 4.03229,46.62501 4.38653,49.17881 0.13003,0.93735 2.03727,1.71646 9.94821,4.06382 5.38304,1.59727 23.27551,6.90683 39.76106,11.79901 31.89225,9.46423 58.95869,17.29776 61.4767,17.79252 0.8411,0.16526 2.35508,0.56508 3.3644,0.88847 1.00932,0.32339 2.18687,0.61164 2.61678,0.64056 0.4299,0.0289 11.85355,-3.13052 25.3859,-7.02098 z"
   id="path4204" /></svg>
