<?xml version="1.0" encoding="UTF-8" standalone="no"?>
<!-- Uploaded to: SVG Repo, www.svgrepo.com, Generator: SVG Repo Mixer Tools -->

<svg
   width="800px"
   height="800px"
   viewBox="0 0 24 24"
   fill="none"
   version="1.1"
   id="svg4"
   sodipodi:docname="git.svg"
   inkscape:version="1.2.1 (9c6d41e410, 2022-07-14)"
   xmlns:inkscape="http://www.inkscape.org/namespaces/inkscape"
   xmlns:sodipodi="http://sodipodi.sourceforge.net/DTD/sodipodi-0.dtd"
   xmlns="http://www.w3.org/2000/svg"
   xmlns:svg="http://www.w3.org/2000/svg">
  <defs
     id="defs8" />
  <sodipodi:namedview
     id="namedview6"
     pagecolor="#ffffff"
     bordercolor="#000000"
     borderopacity="0.25"
     inkscape:showpageshadow="2"
     inkscape:pageopacity="0.0"
     inkscape:pagecheckerboard="0"
     inkscape:deskcolor="#d1d1d1"
     showgrid="false"
     inkscape:zoom="1.04625"
     inkscape:cx="399.5221"
     inkscape:cy="400.4779"
     inkscape:window-width="1920"
     inkscape:window-height="1017"
     inkscape:window-x="-8"
     inkscape:window-y="-8"
     inkscape:window-maximized="1"
     inkscape:current-layer="svg4" />
  <path
     fill-rule="evenodd"
     clip-rule="evenodd"
     d="M13.4142 3.82843C12.6332 3.04738 11.3668 3.04738 10.5858 3.82843L9.91421 4.5L11.482 6.06774C11.6472 6.02356 11.8208 6 12 6C13.1046 6 14 6.89543 14 8C14 8.17916 13.9764 8.35282 13.9323 8.51804L15.982 10.5677C16.1472 10.5236 16.3208 10.5 16.5 10.5C17.6046 10.5 18.5 11.3954 18.5 12.5C18.5 13.6046 17.6046 14.5 16.5 14.5C15.3954 14.5 14.5 13.6046 14.5 12.5C14.5 12.3208 14.5236 12.1472 14.5677 11.982L13 10.4142V15.2676C13.5978 15.6134 14 16.2597 14 17C14 18.1046 13.1046 19 12 19C10.8954 19 10 18.1046 10 17C10 16.2597 10.4022 15.6134 11 15.2676V9.73244C10.4022 9.38663 10 8.74028 10 8C10 7.82084 10.0236 7.64718 10.0677 7.48196L8.5 5.91421L3.82843 10.5858C3.04738 11.3668 3.04738 12.6332 3.82843 13.4142L10.5858 20.1716C11.3668 20.9526 12.6332 20.9526 13.4142 20.1716L20.1716 13.4142C20.9526 12.6332 20.9526 11.3668 20.1716 10.5858L13.4142 3.82843ZM9.17157 2.41421C10.7337 0.852115 13.2663 0.852119 14.8284 2.41422L21.5858 9.17157C23.1479 10.7337 23.1479 13.2663 21.5858 14.8284L14.8284 21.5858C13.2663 23.1479 10.7337 23.1479 9.17157 21.5858L2.41421 14.8284C0.852115 13.2663 0.852119 10.7337 2.41422 9.17157L9.17157 2.41421Z"
     fill="#000000"
     id="path2" />
  <path
     style="fill:#413f3f;stroke-width:0.955795;paint-order:stroke fill markers"
     d="M 386.66856,757.4288 C 363.39264,754.79225 340.11099,745.80965 321.77509,732.39141 316.39215,728.45217 276.3637,689.06372 192.47525,605.15893 77.154964,489.81618 70.631331,483.11071 64.277202,473.38756 41.673402,438.79897 36.045195,397.46047 48.694938,358.93771 53.024033,345.75414 57.012294,337.57646 65.056236,325.38985 70.356005,317.36068 84.220611,303.13503 191.06118,196.10369 277.51454,109.49597 313.66012,73.906789 320.21943,68.933608 c 16.28142,-12.344343 37.18933,-21.466179 57.58362,-25.122946 11.64796,-2.088519 32.74594,-2.088519 44.3939,0 20.39429,3.656767 41.3022,12.778603 57.58362,25.122946 6.55664,4.97116 42.74451,40.597572 129.17425,127.170082 113.7132,113.90107 120.42035,120.80633 126.76436,130.50875 15.68106,23.98238 22.91738,49.60388 21.94172,77.68864 -0.91371,26.3015 -7.8602,47.80075 -22.71714,70.30907 -5.29976,8.02917 -19.16437,22.25482 -126.00494,129.28616 -86.45336,86.60772 -122.59894,122.1969 -129.15825,127.17008 -16.03149,12.15486 -37.38995,21.55042 -56.59411,24.89569 -10.62484,1.8508 -27.2369,2.51802 -36.5179,1.46672 z m 33.08451,-68.10837 c 16.79619,-5.33714 9.41674,1.45421 138.72332,-127.66773 85.41571,-85.29376 119.55838,-119.99389 122.73807,-124.74207 2.42279,-3.61791 5.73112,-10.28458 7.35185,-14.81481 2.77766,-7.76407 2.94679,-9.0322 2.94679,-22.09582 0,-13.06362 -0.16913,-14.33175 -2.94679,-22.09582 -1.62073,-4.53023 -4.92836,-11.1969 -7.35031,-14.81481 C 678.03256,358.33392 643.89312,323.6511 558.00003,237.9122 447.92225,128.03204 438.6957,119.06194 432.49701,115.89726 420.76242,109.90628 413.04105,108.03918 400,108.03918 c -9.30868,0 -12.82007,0.41846 -18.63799,2.22114 -14.04981,4.35332 -19.19617,7.8349 -36.1201,24.43579 l -15.57051,15.2733 26.37103,26.38365 26.37102,26.38365 7.35959,-1.31028 c 13.17835,-2.34625 26.45321,-0.16359 40.33449,6.63183 11.48278,5.62126 22.87961,17.0181 28.50088,28.50088 6.79518,13.8808 8.97807,27.15623 6.63204,40.3333 l -1.31009,7.35841 34.10513,34.09525 34.10512,34.09525 8.34575,-1.18468 c 21.14823,-3.00199 40.45082,3.58191 55.95772,19.08657 9.0381,9.03679 14.8488,19.0213 17.81565,30.61255 2.09843,8.19847 2.09247,23.38123 -0.0124,31.54122 -4.77374,18.50649 -18.30399,35.0919 -35.51377,43.53289 -9.58461,4.70102 -17.47793,6.48666 -28.67383,6.48666 -11.61194,0 -19.11098,-1.78764 -30.10753,-7.17713 -6.51984,-3.19541 -9.73403,-5.60108 -16.27563,-12.18149 -13.5653,-13.64579 -19.53626,-27.87123 -19.48909,-46.43154 0.0147,-5.78255 0.49107,-12.07179 1.05861,-13.97606 l 1.0319,-3.46234 -26.6515,-26.6388 -26.65155,-26.63879 0.002,81.71403 0.002,81.71403 4.26894,2.69695 c 11.4216,7.21572 23.10632,24.06315 26.96574,38.88011 2.14149,8.22151 2.13915,23.33465 -0.005,31.54122 -4.86258,18.61232 -18.4973,35.29609 -35.53431,43.48063 -9.89907,4.75549 -17.63178,6.5115 -28.67383,6.5115 -11.04206,0 -18.77477,-1.75601 -28.67384,-6.5115 -17.03749,-8.18454 -30.67221,-24.86831 -35.53479,-43.48063 -2.14402,-8.20657 -2.14635,-23.31971 -0.005,-31.54122 3.85942,-14.81696 15.54414,-31.66439 26.96574,-38.88011 l 4.26893,-2.69695 0.002,-92.79005 0.002,-92.79004 -4.66299,-3.02152 c -6.39535,-4.14403 -15.53375,-14.1423 -19.64435,-21.49275 -7.49923,-13.40987 -10.40599,-28.7813 -8.0236,-42.43013 l 1.36865,-7.84109 -26.34452,-26.33193 -26.34453,-26.33193 -81.3348,81.48486 c -86.37385,86.5327 -85.18187,85.21805 -90.78089,100.12284 -2.52782,6.72915 -2.69318,8.07635 -2.69841,21.98327 -0.005,14.31499 0.096,15.0816 3.00613,22.72225 1.65643,4.34908 4.94884,10.80069 7.31647,14.33691 3.05316,4.56012 38.84955,40.91224 123.11723,125.02864 110.52231,110.32388 119.27929,118.83539 125.50302,121.98506 12.95117,6.55424 21.48973,8.47164 35.36439,7.94133 6.6533,-0.25429 11.78484,-1.07292 16.88569,-2.69376 z"
     id="path914"
     transform="scale(0.03)" />
</svg>
