<?xml version="1.0" encoding="UTF-8" standalone="no"?>
<!-- Uploaded to: SVG Repo, www.svgrepo.com, Generator: SVG Repo Mixer Tools -->

<svg
   width="800px"
   height="800px"
   viewBox="-1 0 20 20"
   version="1.1"
   id="svg12"
   sodipodi:docname="html - copia.svg"
   inkscape:version="1.2.1 (9c6d41e410, 2022-07-14)"
   xmlns:inkscape="http://www.inkscape.org/namespaces/inkscape"
   xmlns:sodipodi="http://sodipodi.sourceforge.net/DTD/sodipodi-0.dtd"
   xmlns="http://www.w3.org/2000/svg"
   xmlns:svg="http://www.w3.org/2000/svg">
  <sodipodi:namedview
     id="namedview14"
     pagecolor="#ffffff"
     bordercolor="#000000"
     borderopacity="0.25"
     inkscape:showpageshadow="2"
     inkscape:pageopacity="0.0"
     inkscape:pagecheckerboard="0"
     inkscape:deskcolor="#d1d1d1"
     showgrid="false"
     inkscape:zoom="0.73981047"
     inkscape:cx="227.08519"
     inkscape:cy="398.75078"
     inkscape:window-width="1920"
     inkscape:window-height="1017"
     inkscape:window-x="-8"
     inkscape:window-y="-8"
     inkscape:window-maximized="1"
     inkscape:current-layer="svg12" />
  <title
     id="title2">html [#124]</title>
  <desc
     id="desc4">Created with Sketch.</desc>
  <defs
     id="defs6" />
  <path
     style="fill:#404040;fill-opacity:1;stroke-width:0.0238949;paint-order:stroke fill markers"
     d="M 5.2936341,19.046819 C 3.2894521,18.540655 1.6461653,18.12353 1.6418853,18.119876 1.6376053,18.116222 1.2664301,14.039673 0.8170516,9.0608791 L 0,0.00852578 4.5006131,0.00248978 c 2.475337,-0.003319705 6.5187549,-0.003319705 8.9853729,0 l 4.48476,0.006036 -0.817513,9.02893682 c -0.449632,4.9659154 -0.82292,9.0343434 -0.829529,9.0409524 -0.01395,0.01395 -7.3457149,1.895647 -7.3699209,1.891486 -0.0089,-0.0015 -1.655968,-0.416917 -3.660149,-0.923082 z m 5.9976099,-3.244712 c 1.255078,-0.352213 2.289869,-0.647013 2.299537,-0.655111 0.0097,-0.0081 0.03423,-0.207889 0.05458,-0.443981 0.02035,-0.236091 0.122181,-1.380869 0.22629,-2.543952 0.104108,-1.163082 0.221767,-2.5125444 0.261464,-2.9988049 0.0397,-0.4862605 0.07811,-0.9513142 0.08535,-1.0334527 l 0.01318,-0.149343 h -4.110582 c -2.8154049,0 -4.1105819,-0.00779 -4.1105819,-0.024715 0,-0.013593 -0.04301,-0.4406232 -0.09558,-0.948956 -0.05257,-0.5083322 -0.09558,-0.943447 -0.09558,-0.9669215 0,-0.04082 0.187574,-0.042681 4.3018249,-0.042681 3.420237,0 4.303859,-0.00612 4.31175,-0.029869 0.0055,-0.016428 0.04833,-0.4223415 0.09528,-0.902031 0.04694,-0.4796892 0.09154,-0.9232377 0.0991,-0.985663 l 0.01374,-0.1135007 H 8.9876391 c -5.423456,0 -5.653377,0.00175 -5.653377,0.042917 0,0.023604 0.02664,0.273604 0.05919,0.5555554 0.07171,0.6211006 0.257946,2.4851726 0.405726,4.0610263 0.05977,0.6373955 0.114688,1.2045998 0.122032,1.260454 l 0.01335,0.1015533 h 3.904888 3.9048889 l -0.01231,0.1015528 c -0.0068,0.05585 -0.06555,0.746017 -0.13061,1.533695 -0.06507,0.787679 -0.126524,1.440142 -0.136576,1.449918 -0.01005,0.0098 -0.57298,0.216607 -1.250953,0.459623 l -1.2326769,0.441847 -1.253425,-0.467791 -1.253425,-0.467792 -0.06663,-0.886339 c -0.03665,-0.487487 -0.07268,-0.953544 -0.08008,-1.035682 l -0.01344,-0.149343 h -1.14622 -1.146211 l 0.01373,0.101553 c 0.0076,0.05585 0.08029,0.924134 0.161652,1.92951 0.08136,1.005377 0.149214,1.829984 0.150793,1.83246 0.01042,0.01633 4.618362,1.628205 4.637435,1.622189 0.01314,-0.0041 1.0507759,-0.295712 2.3058539,-0.647925 z"
     id="path936" />
</svg>
