<?xml version="1.0" encoding="UTF-8" standalone="no"?>
<!-- Uploaded to: SVG Repo, www.svgrepo.com, Generator: SVG Repo Mixer Tools -->

<svg
   fill="#000000"
   width="800px"
   height="800px"
   viewBox="0 0 32 32"
   version="1.1"
   id="svg6"
   sodipodi:docname="inkscape.svg"
   inkscape:version="1.2.1 (9c6d41e410, 2022-07-14)"
   xmlns:inkscape="http://www.inkscape.org/namespaces/inkscape"
   xmlns:sodipodi="http://sodipodi.sourceforge.net/DTD/sodipodi-0.dtd"
   xmlns="http://www.w3.org/2000/svg"
   xmlns:svg="http://www.w3.org/2000/svg">
  <defs
     id="defs10" />
  <sodipodi:namedview
     id="namedview8"
     pagecolor="#ffffff"
     bordercolor="#000000"
     borderopacity="0.25"
     inkscape:showpageshadow="2"
     inkscape:pageopacity="0.0"
     inkscape:pagecheckerboard="0"
     inkscape:deskcolor="#d1d1d1"
     showgrid="false"
     inkscape:zoom="1.04625"
     inkscape:cx="399.5221"
     inkscape:cy="400.4779"
     inkscape:window-width="1920"
     inkscape:window-height="1017"
     inkscape:window-x="-8"
     inkscape:window-y="-8"
     inkscape:window-maximized="1"
     inkscape:current-layer="svg6" />
  <title
     id="title2">inkscape</title>
  <path
     style="fill:#413f3f;stroke-width:0.0382318;paint-order:stroke fill markers"
     d="m 15.426541,30.767285 c -0.467639,-0.02973 -0.853734,-0.16671 -1.064776,-0.377752 -0.147907,-0.147907 -0.197375,-0.253733 -0.292181,-0.625051 -0.142696,-0.558886 -0.370116,-0.916097 -0.739212,-1.161089 -0.307038,-0.2038 -0.519354,-0.274135 -1.346672,-0.446118 -0.413888,-0.08604 -0.8617,-0.20014 -0.995137,-0.253559 -0.397311,-0.159054 -0.704196,-0.485589 -0.704196,-0.749284 0,-0.204415 0.227607,-0.545388 0.707035,-1.059192 0.807502,-0.865402 0.888276,-1.182173 0.410888,-1.611386 C 11.028502,24.147787 10.228013,23.812471 8.2564488,23.166096 5.99751,22.425506 5.1040273,22.053811 4.7405373,21.703454 c -0.219801,-0.21186 -0.2373,-0.303277 -0.09745,-0.509086 0.137104,-0.201766 0.394102,-0.356084 1.4761157,-0.886352 1.0172892,-0.498548 1.29523,-0.68377 1.3991052,-0.932378 0.080615,-0.19294 -0.00496,-0.362831 -0.2436964,-0.483808 C 6.9723926,18.738684 6.3045794,18.529932 5.4671613,18.32684 2.9430723,17.714692 2.8197933,17.678537 2.1500853,17.354019 1.6556433,17.11443 1.3020403,16.80513 1.1484473,16.477878 c -0.121574,-0.25903 -0.146222,-0.679591 -0.05938,-1.013142 0.154997,-0.59532 0.655709,-1.413355 1.270097,-2.075014 0.93447,-1.006366 11.0436347,-11.3037584 11.2308087,-11.4399195 0.677905,-0.4931463 1.379269,-0.7219233 2.19977,-0.7175407 0.806411,0.00431 1.536148,0.2466469 2.178083,0.7233228 0.179285,0.1331308 10.982204,11.1388254 11.92298,12.1467794 0.462136,0.495136 0.772378,0.94382 0.936812,1.354852 0.10467,0.26164 0.117902,0.338757 0.119372,0.695692 0.0016,0.383872 -0.0044,0.413978 -0.135925,0.688172 -0.185309,0.386216 -0.430979,0.675869 -0.843928,0.995016 -0.872771,0.674523 -1.98415,1.162512 -4.657681,2.045118 -1.683169,0.55566 -2.384167,0.81142 -2.926518,1.067748 -0.466335,0.220401 -0.590805,0.335744 -0.590805,0.547481 0,0.3043 0.23547,0.505828 1.261649,1.079788 1.026006,0.573863 1.309015,0.795673 1.434525,1.124315 0.06231,0.163158 0.06167,0.178415 -0.0174,0.416016 -0.171437,0.515165 -0.550103,0.991297 -0.963697,1.21174 -0.308368,0.164358 -0.557804,0.245284 -1.351879,0.438599 -0.378495,0.09214 -0.843011,0.222198 -1.032259,0.289011 -0.759525,0.268148 -1.455942,0.711498 -1.99761,1.271711 -0.255399,0.264143 -0.27718,0.299404 -0.27718,0.448715 0,0.216899 0.132251,0.337966 0.66716,0.61074 0.226792,0.115651 0.45333,0.258907 0.503418,0.318346 0.252108,0.29917 0.0023,0.587105 -0.948259,1.092932 -1.158471,0.616474 -2.707902,1.028456 -3.644064,0.968929 z m 0.850081,-9.288679 c 0.309661,-0.205541 0.445703,-0.461662 0.306431,-0.576908 -0.02628,-0.02175 -0.426285,-0.111098 -0.888889,-0.198552 -1.407815,-0.266144 -3.552211,-0.725504 -4.320192,-0.925448 -0.740413,-0.192767 -0.952493,-0.222647 -1.027997,-0.144836 -0.217365,0.224008 2.241683,1.305892 4.029192,1.772686 1.101703,0.287701 1.552016,0.305002 1.901455,0.07306 z m 0.05121,-11.7112075 1.451499,-0.918366 0.90551,0.4772396 c 0.498031,0.2624816 0.911536,0.471214 0.9189,0.4638496 0.01221,-0.012207 0.427727,-2.4494348 0.429124,-2.5170192 3.6e-4,-0.016032 0.484171,0.358034 1.075201,0.8312576 0.59103,0.4732236 1.089729,0.8510564 1.10822,0.8396284 0.07948,-0.049122 0.158245,-0.4550352 0.14086,-0.7259328 C 22.325616,7.7266805 22.329297,7.7310937 19.880544,5.2490905 18.671464,4.0235929 17.596195,2.9466574 17.491058,2.8559004 17.235169,2.6350112 16.775563,2.4098694 16.418245,2.3303737 15.792061,2.191061 15.04151,2.3063237 14.496174,2.625549 14.097121,2.8591434 9.7892844,7.2009041 9.434348,7.7272369 9.092546,8.2340913 9.0410948,8.9070545 9.318902,9.2372097 c 0.2138588,0.2541564 0.263338,0.2616504 1.7301,0.2620432 l 1.318997,3.6e-4 0.760231,-1.31851 c 0.418126,-0.7251712 0.764892,-1.3185008 0.770591,-1.3185008 0.0057,0 0.221941,0.8602152 0.480538,1.9115892 0.258597,1.051374 0.476207,1.9115887 0.483577,1.9115887 0.0074,0 0.666575,-0.413264 1.4649,-0.9183655 z"
     id="path808" />
  <path
     style="fill:#413f3f;stroke-width:0.955795;paint-order:stroke fill markers"
     d="m 192.367,681.24654 c -9.36132,-3.87664 -17.42669,-12.37118 -18.82544,-19.82715 -2.25684,-12.03 12.49301,-25.17855 34.34374,-30.61525 8.79761,-2.18895 23.01778,-2.21846 30.58543,-0.0635 6.05494,1.72422 15.21552,7.2944 16.19532,9.84771 0.3197,0.83314 -0.55254,3.70825 -1.93831,6.38914 -6.97161,13.48714 -19.3847,25.57652 -32.83733,31.981 -6.12892,2.91783 -8.24055,3.42528 -15.29271,3.67498 -6.14162,0.21746 -9.19156,-0.1284 -12.2307,-1.38695 z"
     id="path918"
     transform="scale(0.04)" />
  <path
     style="fill:#413f3f;stroke-width:0.955795;paint-order:stroke fill markers"
     d="m 642.7718,673.4757 c -10.92186,-2.87378 -18.63799,-11.4273 -18.63799,-20.66068 0,-5.4501 1.84969,-9.95528 6.75462,-16.45181 4.47141,-5.92233 5.6318,-6.13844 14.67781,-2.73353 16.53092,6.22222 26.89886,17.69506 26.17007,28.95896 -0.25173,3.8906 -0.7238,4.78352 -3.52352,6.66475 -1.77807,1.19475 -4.78882,2.63814 -6.69056,3.20754 -4.61364,1.38136 -15.18318,1.95339 -18.75043,1.01477 z"
     id="path920"
     transform="scale(0.04)" />
  <path
     style="fill:#413f3f;stroke-width:0.0382318;paint-order:stroke fill markers"
     d="m 27.182813,24.504784 c -0.617381,-0.08715 -1.122367,-0.252843 -1.173037,-0.384888 -0.06963,-0.181455 0.434104,-0.803345 0.859538,-1.061149 0.487252,-0.295265 1.17064,-0.407226 1.68987,-0.276854 0.553954,0.13909 1.071425,0.491868 1.37284,0.935914 0.121607,0.179151 0.14025,0.231218 0.111031,0.310095 -0.08532,0.230325 -0.313614,0.360563 -0.812512,0.46353 -0.41952,0.08659 -1.479964,0.0935 -2.04773,0.01335 z"
     id="path922" />
</svg>
