<?xml version="1.0" encoding="UTF-8" standalone="no"?>
<!-- Uploaded to: SVG Repo, www.svgrepo.com, Generator: SVG Repo Mixer Tools -->

<svg
   width="800px"
   height="800px"
   viewBox="0 0 20 20"
   version="1.1"
   id="svg12"
   sodipodi:docname="js.svg"
   inkscape:version="1.2.1 (9c6d41e410, 2022-07-14)"
   xmlns:inkscape="http://www.inkscape.org/namespaces/inkscape"
   xmlns:sodipodi="http://sodipodi.sourceforge.net/DTD/sodipodi-0.dtd"
   xmlns="http://www.w3.org/2000/svg"
   xmlns:svg="http://www.w3.org/2000/svg">
  <sodipodi:namedview
     id="namedview14"
     pagecolor="#ffffff"
     bordercolor="#000000"
     borderopacity="0.25"
     inkscape:showpageshadow="2"
     inkscape:pageopacity="0.0"
     inkscape:pagecheckerboard="0"
     inkscape:deskcolor="#d1d1d1"
     showgrid="false"
     inkscape:zoom="1.04625"
     inkscape:cx="399.5221"
     inkscape:cy="400.4779"
     inkscape:window-width="1920"
     inkscape:window-height="1017"
     inkscape:window-x="-8"
     inkscape:window-y="-8"
     inkscape:window-maximized="1"
     inkscape:current-layer="svg12" />
  <title
     id="title2">javascript [#155]</title>
  <desc
     id="desc4">Created with Sketch.</desc>
  <defs
     id="defs6" />
  <path
     style="fill:#413f3f;stroke-width:0.0238949;paint-order:stroke fill markers"
     d="M 0,9.9880526 V 0 H 10 20 V 9.9880526 19.976106 H 10 0 Z M 8.6411667,18.54046 c 0.4471885,-0.0622 0.8929855,-0.226306 1.2303413,-0.452916 0.202712,-0.136167 0.508407,-0.447604 0.651841,-0.664086 0.245983,-0.371255 0.417314,-0.891157 0.466413,-1.415322 0.0168,-0.179311 0.02563,-1.434652 0.02569,-3.648518 l 7.5e-5,-3.3751496 H 10 8.9844682 l -8.35e-4,3.4109926 c -8.975e-4,3.674588 4.2e-4,3.633336 -0.124892,3.907055 C 8.70794,16.631909 8.4227255,16.797146 8.003824,16.797805 7.5327915,16.798545 7.2265892,16.603696 6.9232525,16.110189 6.8534262,15.996587 6.789185,15.916867 6.7725962,15.923232 c -0.015906,0.0061 -0.362861,0.244521 -0.7710107,0.529815 l -0.74209,0.518716 0.080133,0.158085 c 0.398382,0.785925 1.1208917,1.264844 2.1122405,1.400109 0.2867915,0.03913 0.9418725,0.04492 1.1892962,0.0105 z M 15.89071,18.397782 c 1.333129,-0.16564 2.200012,-0.833473 2.484645,-1.914134 0.07396,-0.280813 0.0926,-0.869745 0.03836,-1.212204 -0.170793,-1.078347 -0.792641,-1.697291 -2.428051,-2.416717 -0.878202,-0.386326 -0.989595,-0.440353 -1.202233,-0.583102 -0.243301,-0.163332 -0.351712,-0.29706 -0.413708,-0.510319 -0.05116,-0.175987 -0.03514,-0.43756 0.03578,-0.584055 0.191897,-0.396407 0.704101,-0.563567 1.227666,-0.400655 0.26721,0.08315 0.482725,0.266746 0.690822,0.588521 0.05414,0.08371 0.102327,0.152207 0.107085,0.152207 0.01222,0 1.425773,-0.908255 1.451452,-0.932605 0.04519,-0.04285 -0.275886,-0.505843 -0.520244,-0.7502014 -0.367873,-0.3678735 -0.788138,-0.5887727 -1.34526,-0.7070957 -0.342446,-0.072729 -0.960564,-0.090059 -1.319933,-0.037005 -1.472864,0.2174393 -2.36664,1.3264607 -2.225479,2.7614347 0.106108,1.078643 0.653705,1.774415 1.853358,2.35486 0.197133,0.09538 0.543583,0.249421 0.769889,0.34231 0.985012,0.404302 1.316951,0.659615 1.429682,1.099645 0.06935,0.270708 -0.02515,0.566337 -0.246171,0.770064 -0.387174,0.356885 -1.200782,0.427989 -1.818325,0.158909 -0.3039,-0.132416 -0.674513,-0.463379 -0.902017,-0.805513 -0.06173,-0.09283 -0.116855,-0.168781 -0.122506,-0.168781 -0.01435,0 -1.442159,0.826877 -1.496757,0.866804 -0.04314,0.03155 -0.04285,0.03581 0.0094,0.138428 0.165987,0.326006 0.509941,0.742437 0.817102,0.98928 0.567392,0.455971 1.192459,0.704153 2.0376,0.809026 0.164091,0.02036 0.900283,0.0142 1.087843,-0.0091 z"
     id="path921" />
</svg>
