<?xml version="1.0" encoding="UTF-8" standalone="no"?>
<!-- Uploaded to: SVG Repo, www.svgrepo.com, Generator: SVG Repo Mixer Tools -->

<svg
   fill="#000000"
   width="800px"
   height="800px"
   viewBox="0 0 32 32"
   version="1.1"
   id="svg6"
   sodipodi:docname="premiere.svg"
   inkscape:version="1.2.1 (9c6d41e410, 2022-07-14)"
   xmlns:inkscape="http://www.inkscape.org/namespaces/inkscape"
   xmlns:sodipodi="http://sodipodi.sourceforge.net/DTD/sodipodi-0.dtd"
   xmlns="http://www.w3.org/2000/svg"
   xmlns:svg="http://www.w3.org/2000/svg">
  <defs
     id="defs10" />
  <sodipodi:namedview
     id="namedview8"
     pagecolor="#ffffff"
     bordercolor="#000000"
     borderopacity="0.25"
     inkscape:showpageshadow="2"
     inkscape:pageopacity="0.0"
     inkscape:pagecheckerboard="0"
     inkscape:deskcolor="#d1d1d1"
     showgrid="false"
     inkscape:zoom="1.04625"
     inkscape:cx="399.5221"
     inkscape:cy="400.4779"
     inkscape:window-width="1920"
     inkscape:window-height="1017"
     inkscape:window-x="-8"
     inkscape:window-y="-8"
     inkscape:window-maximized="1"
     inkscape:current-layer="svg6" />
  <title
     id="title2">adobepremierepro</title>
  <path
     style="fill:#413f3f;stroke-width:0.0382318;paint-order:stroke fill markers"
     d="m 5.7611996,30.542035 c -0.08411,-0.0075 -0.3229144,-0.04907 -0.5306764,-0.0923 C 4.1504004,30.224977 3.2459119,29.722778 2.4732664,28.918823 1.7771524,28.194501 1.3440363,27.381402 1.0911986,26.324234 1.0263276,26.052994 1.0219806,25.502304 1.0107726,16.135465 0.99785965,5.3432249 0.98682675,5.9475013 1.2111102,5.1629461 1.3452872,4.6935881 1.7464879,3.8946158 2.0473198,3.4976741 2.1836902,3.3177362 2.4564208,3.0166609 2.6533879,2.828618 3.388755,2.1265687 4.1973104,1.7024731 5.2496392,1.4668577 L 5.646504,1.378 h 10.322581 c 9.957333,0 10.334755,0.00254 10.666667,0.071912 1.531808,0.3201375 2.80125,1.2203054 3.586486,2.5431957 0.334828,0.5640864 0.585601,1.2991836 0.674664,1.9776632 0.03317,0.2527044 0.04122,2.8528524 0.03158,10.2029281 -0.01223,9.327778 -0.01666,9.879381 -0.08151,10.150537 -0.257399,1.076272 -0.691659,1.884816 -1.408323,2.622147 -0.759494,0.781396 -1.629084,1.262511 -2.745547,1.519019 l -0.363202,0.08345 -10.207885,0.0034 c -5.614337,0.0019 -10.2767024,-0.0027 -10.3608124,-0.01025 z M 10.75296,22.0027 c 0.07171,-0.03838 0.07395,-0.102056 0.07395,-2.100696 v -2.061119 l 0.79331,0.02228 c 1.1857,0.0333 2.146408,-0.08397 3.019808,-0.368609 1.52773,-0.497883 2.579172,-1.714241 2.856495,-3.304526 0.06711,-0.384817 0.07711,-1.205748 0.01962,-1.610117 C 17.254335,10.738478 16.058891,9.4719792 14.125671,8.9879173 13.270823,8.7738709 13.07316,8.7627025 10.693099,8.7939733 9.4945328,8.8097205 8.419264,8.8335901 8.3036128,8.8470169 L 8.093338,8.8714289 8.083518,15.409063 c -0.00918,6.11254 -0.0056,6.540742 0.055096,6.585424 0.083668,0.06159 2.500419,0.06919 2.614346,0.0082 z m 11.292247,-0.0205 c 0.05367,-0.05367 0.06008,-0.404052 0.06008,-3.283064 v -3.222985 l 0.168594,-0.155404 c 0.435242,-0.401193 1.4614,-0.713933 2.495986,-0.760697 0.281332,-0.01272 0.519087,-0.03538 0.528344,-0.05036 0.0093,-0.01498 0.01805,-0.62582 0.01954,-1.357425 0.0021,-1.051278 -0.0077,-1.336793 -0.04693,-1.361679 -0.134334,-0.08521 -0.928362,0.01429 -1.401741,0.175656 -0.567138,0.193328 -1.174368,0.56664 -1.672605,1.028283 l -0.272015,0.252037 -0.02508,-0.276755 c -0.03644,-0.402103 -0.156859,-0.873641 -0.238322,-0.933208 -0.0542,-0.03963 -0.325204,-0.04819 -1.274669,-0.04025 l -1.205832,0.01008 0.0084,0.267622 c 0.0046,0.147193 0.01906,2.375149 0.03214,4.951016 0.02119,4.172761 0.03031,4.690687 0.0836,4.750299 0.05476,0.06125 0.170479,0.0669 1.370149,0.0669 1.140243,0 1.318139,-0.0078 1.370419,-0.06008 z"
     id="path916" />
  <path
     style="fill:#413f3f;stroke-width:0.0382318;paint-order:stroke fill markers"
     d="M 10.87536,15.45519 C 10.8653,15.42891 10.86154,14.48697 10.86696,13.362 l 0.0099,-2.0454 1.051374,0.0027 c 1.033192,0.0027 1.057307,0.0045 1.394432,0.107442 0.479288,0.146312 0.74987,0.30156 1.009701,0.57932 0.355205,0.379716 0.50023,0.75685 0.501029,1.302914 9.4e-4,0.64388 -0.169151,1.09524 -0.550865,1.46178 -0.367066,0.352475 -0.84506,0.558422 -1.568344,0.675735 -0.45039,0.07305 -1.811804,0.07948 -1.838905,0.0087 z"
     id="path918" />
</svg>
