<?xml version="1.0" encoding="UTF-8" standalone="no"?>
<!-- Uploaded to: SVG Repo, www.svgrepo.com, Generator: SVG Repo Mixer Tools -->

<svg
   width="800px"
   height="800px"
   viewBox="0 0 24 24"
   fill="none"
   version="1.1"
   id="svg4"
   sodipodi:docname="arrow.svg"
   inkscape:version="1.2.1 (9c6d41e410, 2022-07-14)"
   xmlns:inkscape="http://www.inkscape.org/namespaces/inkscape"
   xmlns:sodipodi="http://sodipodi.sourceforge.net/DTD/sodipodi-0.dtd"
   xmlns="http://www.w3.org/2000/svg"
   xmlns:svg="http://www.w3.org/2000/svg">
  <defs
     id="defs8" />
  <sodipodi:namedview
     id="namedview6"
     pagecolor="#ffffff"
     bordercolor="#000000"
     borderopacity="0.25"
     inkscape:showpageshadow="2"
     inkscape:pageopacity="0.0"
     inkscape:pagecheckerboard="0"
     inkscape:deskcolor="#d1d1d1"
     showgrid="false"
     inkscape:zoom="0.73981047"
     inkscape:cx="175.72068"
     inkscape:cy="439.3017"
     inkscape:window-width="1920"
     inkscape:window-height="1017"
     inkscape:window-x="-8"
     inkscape:window-y="-8"
     inkscape:window-maximized="1"
     inkscape:current-layer="svg4" />
  <path
     style="fill:#c5c3c3;fill-opacity:1;stroke-width:0.0396252;paint-order:stroke fill markers"
     d="m 16.158016,17.61167 c -0.234356,-0.09954 -0.486289,-0.333261 -0.580545,-0.538581 -0.100017,-0.217873 -0.08213,-0.570651 0.04029,-0.794232 0.05694,-0.104007 0.155072,-0.233797 0.21806,-0.288423 0.06298,-0.05462 0.450333,-0.262347 0.860772,-0.461605 0.410437,-0.199258 0.764626,-0.379013 0.787088,-0.399456 0.02676,-0.02436 -2.48725,-0.03717 -7.292957,-0.03717 -8.1256062,0 -7.7612863,0.01062 -8.3660469,-0.243698 C 1.4848423,14.705602 1.1623332,14.441522 1.0220934,14.191329 0.79995724,13.79503 0.80370054,13.87322 0.83266494,10.234516 0.84741314,8.3817105 0.87677174,6.8079268 0.89800654,6.7317877 0.96202735,6.5022401 1.1837329,6.2447707 1.421291,6.1240902 1.8701454,5.8960715 2.365144,5.9562139 2.7234207,6.2822988 c 0.360912,0.3284834 0.3446818,0.134785 0.3093642,3.6921234 l -0.030918,3.1142218 h 7.3593071 c 4.124973,0 7.349557,-0.01436 7.337122,-0.03267 -0.0122,-0.01798 -0.419691,-0.234864 -0.90553,-0.481989 -0.48584,-0.247125 -0.94719,-0.500228 -1.025222,-0.562451 -0.300353,-0.239502 -0.428854,-0.753607 -0.273145,-1.092788 0.216124,-0.47078 0.847103,-0.740261 1.349959,-0.576548 0.294061,0.09574 5.74802,2.917052 5.896277,3.050125 0.298663,0.268073 0.403216,0.656185 0.272939,1.01317 -0.138845,0.380465 -0.154541,0.389744 -2.992802,1.769108 -1.439189,0.699429 -2.747014,1.328912 -2.90628,1.398852 -0.361947,0.158944 -0.645554,0.170275 -0.956476,0.03822 z"
     id="path2727" />
</svg>
